<?xml version="1.0" encoding="utf-8"?>
<!-- Generator: Adobe Illustrator 21.1.0, SVG Export Plug-In . SVG Version: 6.00 Build 0)  -->
<svg version="1.1" id="圖層_1" xmlns="http://www.w3.org/2000/svg" xmlns:xlink="http://www.w3.org/1999/xlink" x="0px" y="0px"
	 viewBox="0 0 50 50" style="enable-background:new 0 0 50 50;" xml:space="preserve">
<style type="text/css">
	.st0{fill:#FFFFFF;}
</style>
<path class="st0" d="M19.7,46.4c0-6.3,0-12.7,0-19.3c-2.2,0-4.5,0-6.9,0c0-2.6,0-5,0-7.6c2.3,0,4.5,0,7.3,0c0-2.4-0.1-4.7,0-7
	c0.4-5,3.9-8.1,9.5-8.5C32,3.9,34.4,4,37,4c0,2.4,0,4.6,0,6.8c-1.8,0.1-3.7,0.2-5.6,0.3c-1.7,0.1-2.6,1-2.7,2.4
	c-0.2,1.9,0,3.8,0,5.9c2.7,0,5.4,0,8.2,0c-0.3,2.4-0.6,4.6-1,6.9c-0.1,0.3-0.9,0.6-1.4,0.7c-1.9,0.1-3.8,0-5.9,0
	c0,6.6,0,12.9,0,19.3C25.6,46.4,22.7,46.4,19.7,46.4z"/>
</svg>
