<?xml version="1.0" encoding="utf-8"?>
<!-- Generator: Adobe Illustrator 21.1.0, SVG Export Plug-In . SVG Version: 6.00 Build 0)  -->
<svg version="1.1" id="圖層_1" xmlns="http://www.w3.org/2000/svg" xmlns:xlink="http://www.w3.org/1999/xlink" x="0px" y="0px"
	 viewBox="0 0 292 175.7" style="enable-background:new 0 0 292 175.7;" xml:space="preserve">
<title>logo_life</title>
<g>
	<g>
		<polygon points="93,168.5 92,168.5 92,176.6 97.1,176.6 97.1,175.7 93,175.7 		"/>
		<rect x="99.4" y="168.5" width="1.1" height="8.1"/>
		<polygon points="103.4,176.6 104.5,176.6 104.5,173.3 109,173.3 109,172.4 104.5,172.4 104.5,169.5 109.1,169.5 109.1,168.5 
			103.4,168.5 		"/>
		<polygon points="112.5,172.9 117.2,172.9 117.2,172 112.5,172 112.5,169.5 117.5,169.5 117.5,168.5 111.4,168.5 111.4,176.6 
			117.7,176.6 117.7,175.7 112.5,175.7 		"/>
		<path d="M127.6,174.4c-0.1,0.3-0.1,0.7-0.2,1.1v0.2c-0.1-0.5-0.3-1.3-0.5-2.1l-1.4-5h-1.1c-1,3.3-1.4,5.2-1.5,5.7
			c-0.1,0.5-0.2,1-0.3,1.4c-0.1-0.7-0.3-1.3-0.4-2l-1.4-5.1h-1.1l2.4,8.1h1.3c1-3.5,1.5-5.5,1.5-5.7c0.1-0.3,0.1-0.7,0.2-1.1
			c0.2,0.9,0.3,1.4,0.4,1.7l1.4,5.1h1.3l2.4-8.1h-1.1C128.2,172.1,127.7,174.1,127.6,174.4z"/>
		<path d="M134.1,168.5l-3.3,8.1h1.1l0.9-2.3h3.7l0.9,2.3h1.1l-3.3-8.1H134.1z M133.2,173.4l1-2.6c0.2-0.5,0.3-0.9,0.4-1.2v-0.1
			l0.1,0.4c0.1,0.3,0.2,0.7,0.3,0.9l1,2.6L133.2,173.4L133.2,173.4z"/>
		<path d="M146.5,172.3c0.3-0.4,0.5-0.9,0.5-1.5c0-0.8-0.2-1.3-0.8-1.6c-0.4-0.4-1.2-0.7-2.1-0.7h-3.8v8.1h1.1v-3.4h2.5l2.1,3.4h1.2
			l-2.3-3.5C145.7,173,146.1,172.8,146.5,172.3z M141.5,172.4v-2.9h2.6c0.5,0,1.1,0.1,1.4,0.3c0.3,0.2,0.4,0.7,0.4,1.1
			c0,0.4-0.1,0.9-0.4,1.1c-0.3,0.2-0.8,0.4-1.3,0.4H141.5z"/>
		<polygon points="150.8,172.9 155.5,172.9 155.5,172 150.8,172 150.8,169.5 155.8,169.5 155.8,168.5 149.7,168.5 149.7,176.6 
			156,176.6 156,175.7 150.8,175.7 		"/>
		<polygon points="164,172 159.7,172 159.7,168.5 158.6,168.5 158.6,176.6 159.7,176.6 159.7,172.9 164,172.9 164,176.6 
			165.1,176.6 165.1,168.5 164,168.5 		"/>
		<path d="M173.6,168.9c-0.5-0.3-1.3-0.4-2.1-0.4c-1.2,0-2.2,0.3-2.9,1.1c-0.7,0.8-1.1,1.7-1.1,3.1c0,0.9,0.1,1.5,0.4,2.2
			c0.3,0.7,0.8,1.1,1.4,1.4c0.5,0.3,1.3,0.5,2.2,0.5c0.8,0,1.5-0.2,2.1-0.5c0.5-0.3,1.1-0.9,1.4-1.4c0.3-0.7,0.4-1.3,0.4-2.2
			s-0.1-1.5-0.4-2.2C174.7,169.7,174.2,169.3,173.6,168.9z M173.6,174.9c-0.5,0.5-1.2,0.9-2.2,0.9c-0.9,0-1.6-0.3-2.1-0.9
			c-0.5-0.5-0.8-1.4-0.8-2.4s0.2-1.9,0.8-2.4c0.5-0.5,1.2-0.9,2.2-0.9c0.9,0,1.6,0.3,2.1,0.9c0.5,0.5,0.8,1.3,0.8,2.4
			C174.4,173.5,174.1,174.4,173.6,174.9z"/>
		<path d="M183.3,173.5c0,0.8-0.2,1.3-0.5,1.7c-0.4,0.4-1,0.5-1.6,0.5c-0.7,0-1.2-0.2-1.6-0.5c-0.3-0.3-0.5-1-0.5-1.6v-5h-1.1v5.1
			c0,0.7,0.1,1.2,0.4,1.6c0.2,0.4,0.7,0.8,1.1,1.1c0.5,0.2,1.1,0.3,1.7,0.3c0.7,0,1.3-0.1,1.7-0.3c0.5-0.2,0.9-0.7,1.2-1.1
			c0.3-0.4,0.4-1,0.4-1.6v-5h-1.1v4.8H183.3z"/>
		<path d="M193,173c-0.1-0.1-0.3-0.3-0.5-0.4c-0.2-0.1-0.4-0.2-0.7-0.3c-0.2-0.1-0.4-0.1-0.7-0.2c-0.2-0.1-0.4-0.1-0.8-0.2
			c-0.8-0.2-1.2-0.3-1.5-0.4c-0.2-0.1-0.4-0.2-0.5-0.4c-0.1-0.1-0.2-0.3-0.2-0.7c0-0.4,0.2-0.8,0.5-1c0.3-0.2,0.9-0.3,1.4-0.3
			s1,0.1,1.4,0.3c0.3,0.2,0.5,0.5,0.7,0.9l1.1-0.2c-0.2-0.7-0.5-1.2-1-1.4c-0.4-0.3-1.2-0.4-2.1-0.4c-1,0-1.7,0.2-2.3,0.5
			c-0.5,0.3-0.8,0.9-0.8,1.6c0,0.3,0,0.5,0.1,0.8s0.2,0.4,0.4,0.7c0.2,0.2,0.4,0.3,0.8,0.4c0.3,0.1,0.8,0.3,1.4,0.4
			c0.3,0.1,0.7,0.1,1,0.2c0.3,0.1,0.5,0.1,0.8,0.2c0.2,0.1,0.3,0.2,0.5,0.4c0.1,0.1,0.2,0.3,0.2,0.7c0,0.4-0.2,0.9-0.5,1.1
			c-0.3,0.2-0.9,0.3-1.6,0.3c-0.7,0-1.2-0.1-1.6-0.3c-0.4-0.2-0.7-0.5-0.8-1.1l-1.1,0.2c0.3,1.3,1.4,2.1,3.4,2.1
			c1.1,0,1.9-0.2,2.4-0.7c0.5-0.4,0.9-1,0.9-1.7c0-0.3,0-0.5-0.1-0.8C193.3,173.4,193.2,173.2,193,173z"/>
		<polygon points="196.9,172.9 201.6,172.9 201.6,172 196.9,172 196.9,169.5 201.9,169.5 201.9,168.5 195.8,168.5 195.8,176.6 
			202.1,176.6 202.1,175.7 196.9,175.7 		"/>
		<path d="M4.5,111.5c1.1,0,5.8-5.7,9.5-11.9c0.3-0.5,0.5-1,0.8-1.3c1.4-2.5,2.6-5,3.2-6.2c0.1-0.2,0.2-0.5,0.3-0.9l0,0
			c0.5-1.2,1.1-2.4,1.3-2.6c0.3-0.4,2.5-2,2.5-2.5c0-0.9-3.3-2.4-5.4-3.3c-1.4-0.7-1.9,0.7-1.9,0.7c0,0.1,0,0.1,0,0.2
			c-0.2,1.4-1.5,10.3-9.1,24.1c-0.7,1.1-1.7,3.2-1.7,3.3C4.2,111.3,4.2,111.5,4.5,111.5z"/>
		<path d="M5.7,138.7c0.4-0.1,0.9-0.2,1.3-0.3c0.8-0.1,2.8-0.2,9.8-0.2h45.6c0.8,0,2.3,0,2.3-0.9c0-0.7-5.5-5.2-6.2-5.2
			c-0.7,0-0.9,0.3-2.8,3.2c-0.9,1.2-1.2,1.2-4.4,1.2H40.1c-1.1,0-2-0.1-2.2-1.2c-0.1-0.3-0.1-15.1-0.1-17.1c0-1.6,0.2-2.3,2.2-2.3
			h16.6c2.1,0,3.7,0,3.7-0.9c0-0.7-5.5-5.2-6.2-5.2c-0.7,0-0.9,0.3-2.9,3.1c-0.9,1.2-1.2,1.2-4.4,1.2H40c-2.2,0-2.3-0.9-2.3-2.9
			c0-2,0-12.7,0.1-13.2c0.3-1.2,1.3-1.2,2.1-1.2h17.6c2.1,0,3.6,0,3.6-0.9c0-0.7-5.5-5.2-6.2-5.2c-0.7,0-0.9,0.3-2.8,3.1
			c-0.9,1.2-1.2,1.2-4.4,1.2h-7.5c-2.2,0-2.2-0.9-2.2-2.6c0-1.4,0.1-6.9,0.7-7.9c0.2-0.3,1.6-1.6,1.6-2.1c0-1.7-7-2.4-7.4-2.4
			c-0.4,0-0.8,0.1-0.8,0.4c0,0.3,0.4,1.9,0.5,2.2c0.1,1.2,0.4,3.3,0.4,8.1c0,3.4,0,4.3-2.1,4.3H20.3l-0.9,1.9H31
			c1.2,0,1.9,0.4,2,1.7v13.4c0,1.1,0,2.2-2.1,2.2h-9c-2.2,0-3.6,0-5.4-0.1l0,0c0,0-4.6-0.2-5.5-0.4c-0.2,0-0.7-0.1-0.7,0.2
			c0,0.2,0.1,0.4,0.2,0.7c0.2,0.4,0.4,0.9,0.5,1.3c0.3,0.7,0.8,1.2,1.9,0.9c0.8-0.2,1.4-0.3,2.1-0.4c0.4,0,1.2,0,2.4-0.1
			c0.1,0,0.1,0,0.1,0l0,0c1,0,2.3,0,3.9,0H31c1.5,0,2,0.9,2,1.6v16.6c0,2.5-1,2.5-2.3,2.5H16.3c-2.3,0-4.5-0.1-6.7-0.1l0,0
			c0,0-4.6-0.2-5.5-0.4c-0.2,0-0.7-0.1-0.7,0.2c0,0.2,0.1,0.4,0.2,0.7c0.2,0.4,0.4,0.9,0.5,1.3C4.2,138.5,4.6,139,5.7,138.7z"/>
		<path d="M85.2,103.1c0.7,1.4,1.3,1.9,2,1.9c1,0,2.3-1,2.3-2.7c0-4-6.2-6.3-8.4-6.3c-0.5,0-1.1,0.3-1.1,0.4
			C81.9,98,83.7,99.9,85.2,103.1z"/>
		<path d="M92.3,133.9c-2-7.6-2-5.5-2-7.6c0-2.7,2-5.6,2.9-8.1c1.2-2.8,2.1-5.9,2.1-9c0-0.4-0.2-0.7-0.4-0.7c-0.3,0-0.8,1.5-1,2
			c-2.2,5.5-4.4,8.4-6.8,10.5c-1.6,1.4-3.6,2.5-5.7,2.5c-0.4,0-1.2,0.1-1.2,0.4c0,0.3,1.9,0.7,2.2,0.9c3.3,1.5,4,3.4,4.1,9.9
			c0,1.7,0.1,5.9,3.5,5.9c1.2,0,2.8-1,2.8-3.3C92.8,136.3,92.3,134.2,92.3,133.9z"/>
		<path d="M87,81c0,0.1,0.2,0.4,0.3,0.4c3.2,3.8,3.5,4.3,4.8,6.6c1,1.5,1.6,1.7,2.3,1.7c1.2,0,2.5-1,2.5-2.7c0-4.8-8.4-6.7-9.3-6.7
			C87.2,80.4,87,80.8,87,81z"/>
		<path d="M103.1,139.6c0,1.3,0.9,1.5,2.1,1.5c1.3,0,2.8-0.3,3.4-2v-6.2v-14.2v-3.8c-0.5-0.1-1.1-0.3-1.7-0.7
			c-2.4-1.2-2.7-1.3-3.1-1.3c-0.3,0-0.3,0.4-0.3,0.7c0,0.3,0.1,1.2,0.2,1.5c0.1,1.2,0.1,3.5,0.1,4.6c0,2-0.3,12.3-0.4,15
			C103.3,135.4,103.1,139.1,103.1,139.6z"/>
		<path d="M132.6,140.4c0.9,0,3.8-0.2,3.8-3.7c0-0.1-0.3-13.2-0.3-15.6c0-0.8,0-1.7,0.9-2.6c1-1,1.2-1.2,1.2-1.5
			c0-1-4.4-4.8-5.1-4.8c-0.3,0-0.4,0.1-1.7,1.5c-1.2,1.2-1.5,1.2-2.5,1.2h-4.3c-0.9,0-1.9-0.2-2.1-1.3c-0.1-0.3-0.1-8.7-0.1-9.7
			c0-1.9,1-2.1,2.2-2.1h13.9c2.3,0,3.6,0,3.6-1c0-0.5-4.7-4.6-5.4-4.6s-0.9,0.2-2.5,2.5c-0.9,1.2-1.2,1.2-4.4,1.2h-5.5
			c-0.3,0-1.3,0-1.7-0.9c-0.2-0.4-0.3-8.6-0.3-9.9c0-1.5,0.8-2,2.1-2.1c2.2-0.4,8.3-1.5,10.2-1.5c1.2,0,1.9-0.1,1.9-0.8
			c0-0.9-6.4-5.1-6.7-5.1c-0.1,0-2.7,1.7-3.3,2.1c-2.6,1.2-8.3,3.9-21.6,6.4c-0.5,0.1-3.3,0.7-3.3,0.9c0,0.2,0.8,0.4,1.7,0.4
			c2,0,3.9-0.1,6.8-0.3c0.9-0.1,5-0.7,6-0.7c1.4,0,1.7,1,1.7,2v7.6c0,1.9-1.4,1.9-2.2,1.9h-4.3c-3.3,0-6-0.1-9.4-0.3
			c-0.3,0-2-0.1-2.7-0.2h-0.1c-0.1,0-0.1,0-0.1,0c-0.1,0-0.2,0.1-0.2,0.1l0,0c0,0,0,0-0.1,0.1c0,0.2,0.1,0.4,0.2,0.7
			c0.2,0.4,0.4,0.9,0.5,1.3c0.3,0.7,0.8,1.2,1.9,0.9c1.2-0.3,2.4-0.5,3.4-0.7c1.3,0,3.4-0.1,6.3-0.1h4.7c1.3,0,1.9,0.5,2,1.4
			c0.1,0.2,0.1,8.4,0.1,9.7c0,0.9,0,2.1-2.1,2.1h-3.8v1.7h16.8c2.1,0,2.1,1.3,2.1,2.2c0,2.1-0.1,12-0.1,14.3c0,1.5-0.9,2-2.1,2
			h-16.7v1.9h16.7c1.4,0,1.7,0.7,1.9,1.2C130.6,139.7,130.8,140.4,132.6,140.4z"/>
		<path d="M268.7,131.7H286c2.3,0,3.6,0,3.6-1c0-0.7-4.4-4.7-5.2-4.7c-0.7,0-0.9,0.3-2.6,2.6c-0.9,1.2-1.2,1.2-4.4,1.2h-8.6
			c-2.6,0-2.6-0.4-2.6-4.9c0-1.6,1.4-1.6,2.5-1.6h6.1c0.7,0,1.9,0,2.1,1.3c0.1,1,0.2,1.5,1.4,1.5c3.3,0,3.3-3.3,3.3-4.1
			c0-0.4-0.2-8.7-0.2-10.3c0-1.3,0-2.2,0.5-2.5c1.1-0.8,2.1-1.4,2.1-1.7c0-0.7-4.3-4.1-4.9-4.1c-0.4,0-0.7,0.2-1.7,1.7
			c-1,1.3-2,1.3-2.6,1.3h-5.9c-1.7,0-2.5-0.3-2.5-2.6c0-3.3,0-3.7,2.5-3.7h14.8c2.1,0,3.6,0,3.6-0.9s-3.8-4.5-5-4.5
			c-0.4,0-0.7,0.2-2.2,2.3c-0.9,1.2-1.2,1.2-4.3,1.2h-7.6c-0.9,0-2,0-2-1.5c0-0.4,0.1-0.9,0.3-1.2c0.1-0.3,1.5-1.4,1.5-1.7
			c0-1.1-6.2-2.2-6.6-2.2c-0.5,0-0.9,0.1-0.9,0.3c0,0.3,0.7,3.9,0.7,4.6c0,1.2-0.4,1.7-2,1.7h-4.9c-3.3,0-6-0.1-9.4-0.2
			c-0.4-0.1-2.5-0.3-3.1-0.3c-0.1,0-0.3,0.1-0.3,0.2l0,0l0,0c0,0.2,0.1,0.4,0.2,0.7c0.2,0.4,0.4,0.9,0.5,1.3
			c0.3,0.7,0.8,1.2,1.9,0.9c1-0.3,1.9-0.4,2.7-0.5c1.3,0,3.4-0.1,7-0.1h5.5c1.9,0,2.1,0.8,2.1,3.4c0,2-0.1,2.8-2.2,2.8h-5.1v1.7h5.2
			c1.9,0,2.3,0.5,2.3,2.7c0,2.3-0.4,2.7-2.3,2.7h-5.2v1.7h5.2c2,0,2.3,0.3,2.3,3.1s-0.2,2.9-2.3,2.9h-5.2v1.9h5.2
			c1.4,0,2.3,0.3,2.3,2.2c0,3.4-0.1,4.4-2.3,4.4h-7.8c-2.3,0-4.4,0-6.6-0.1l0,0c0,0-4.6-0.2-5.5-0.4c-0.2,0-0.7-0.1-0.7,0.2
			c0,0.2,0.1,0.4,0.2,0.7c0.2,0.4,0.4,0.9,0.5,1.3c0.3,0.7,0.8,1.2,1.9,0.9c0.8-0.2,1.4-0.3,2.1-0.4c1.2,0,3.4-0.1,7.6-0.1h8.1
			c2,0,2.1,1,2.1,2.1c0,0.8-0.1,4.7-0.1,5.6c0,0.8,0.1,2.5,1.6,2.5c0.7,0,3.4-0.9,3.4-2.6c0-0.4-0.1-4.5-0.1-5.2
			C266.2,131.7,267.4,131.7,268.7,131.7z M268.6,108.2h5.8c2.2,0,2.5,0.4,2.5,2.7s-0.3,2.7-2.5,2.7h-5.8c-2.2,0-2.5-0.4-2.5-2.7
			C266.1,108.8,266.5,108.2,268.6,108.2z M268.7,115.4h5.6c2.5,0,2.5,0.5,2.5,3.2c0,2.4,0,2.8-2.5,2.8h-5.6c-2.6,0-2.6-0.4-2.6-3.1
			C266.1,116.2,266.3,115.4,268.7,115.4z"/>
		<path d="M246.2,123.7c0,1.3,0.7,2.3,2.1,2.3c1.1,0,2-0.4,2.5-1.3v-18.6c-0.2,0-0.3-0.1-0.5-0.1c-0.7-0.3-3.3-1.7-3.9-1.7
			c-0.3,0-0.4,0.2-0.4,0.5c0,0.3,0.2,0.9,0.2,1.2c0.1,0.9,0.2,3.9,0.2,7c0,2.7,0,6.1-0.1,8.8C246.2,122,246.2,123.4,246.2,123.7z"/>
		<path d="M229.1,140c0,0.2,0.1,0.4,0.4,0.4c0.9,0,3.7-4.1,4.7-6c3.7-6.9,5.6-16.4,5.7-41.3l0,0v-5c-0.2-0.1-0.4-0.1-0.7-0.3
			c-3.3-1.7-3.6-2-4.4-2c-0.5,0-0.7,0.3-0.7,0.7c0,0.3,0.4,2.2,0.4,2.5c0.3,3.3,0.3,15.8,0.3,16.1c0,9.7-0.2,22.9-3.6,30.7
			C231.1,136.4,229.1,139.8,229.1,140z"/>
		<path d="M290.8,89.3c0-0.9-4.7-4.5-5.7-4.5c-0.7,0-1.1,0.7-2.2,2.2c-0.9,1.4-1.7,1.4-4.5,1.4H270h-4.6h-9.9h-5.8h-6.6v2h44
			C290.5,90.4,290.8,90.4,290.8,89.3z"/>
		<path d="M254.6,77.8c5.1,3.6,5.5,3.7,7.8,6.1c1.7,1.6,2.9,2,3.7,1.7c1.4-0.4,2.7-1.6,2.2-3.8c-1.3-5.6-12.6-5.8-13.6-5.5
			c-0.5,0.1-0.5,0.7-0.4,1C254.2,77.4,254.5,77.8,254.6,77.8z"/>
		<path d="M219.6,100c-0.2,0-0.4-0.1-0.5-0.1c-10.6-1.9-23.4-10.3-27.3-14.4l-1.1,1c6.4,9,19,17.1,22.8,18.7c0.3,0.1,1.2,0.2,2-0.5
			c0.1-0.2,0.3-0.4,0.5-0.8c0.7-0.9,2.2-1.9,3.4-2.5c0.1,0,0.2-0.1,0.3-0.1C220.4,100.9,221.4,100.4,219.6,100z"/>
		<path d="M185,87.3L185,87.3c1.7-1.7,2.9-2.5,3.9-2.9c0.8-0.3,1.3-0.5,1.7-1l0,0c0.3-0.3,0.4-0.7,0.3-0.9l0,0
			c0-0.2-0.1-0.4-0.4-0.7c0-0.1-0.1-0.1-0.1-0.2l0,0c-0.1-0.1-0.1-0.1-0.1-0.1l0,0c-1.6-1.4-5.5-3.2-5.7-3.2c-0.7,0-0.7,0.3-1,1.5
			c-0.3,1.4-7.9,11.5-21.4,21.2c-1.2,0.9-7.4,4.9-7.4,5.1c0,0.1,0.2,0.2,0.3,0.2c0.3,0,6.4-2.2,13.8-6.4c0,0.1,0,0.1,0,0.2
			c0,1.1,0.3,6.6,0.3,7.8c0,9.2-5,22.4-12.2,29.9c-0.3,0.2-1.2,1.2-1.2,1.4c0,0.1,0.1,0.1,0.2,0.1c0.1,0,9.5-6,14.1-14.8
			c0,0.3,0,0.5,0,0.9c0,1.9-0.3,11.5-0.3,13.2c0,1.1,0,3.1,2,3.1c0.2,0,2,0,2.8-1.9v-16.3c-0.3-0.1-0.5-0.3-0.9-0.4
			c-1.1-0.8-1.9-1.2-2.4-1.5c0.2-0.5,0.3-1.1,0.5-1.7c0.7-2.3,0.7-2.5,2.3-2.5h25c0.4,0,1.3,0,1.6,0.5c1.1,1.9,1.2,2,2,2
			c2.2,0,2.7-2.6,2.7-4.4c0-0.3-0.1-4.5-0.1-4.7c0-4.8,0.1-5,0.2-5.6c0.1-0.3,1.3-1.6,1.3-2c0-1-4-3.6-4.6-3.6
			c-0.4,0-0.4,0.1-1.2,1.4c-0.4,0.7-4.6,0.7-7.8,0.7h-17.9c-0.7,0-1.6-0.1-2.3-0.3c-0.4-0.2-2.4-1.3-3.4-1.6
			c3.7-2.2,7.6-4.9,11.1-8.1c0.1,0.1,0.2,0.3,0.2,0.3c3.2,3.8,3.5,4.3,4.8,6.6c1,1.5,1.6,1.7,2.3,1.7c1.2,0,2.5-1,2.5-2.7
			c0-4.5-7.3-6.4-9.1-6.7C182.9,89.6,184,88.5,185,87.3z M173.4,112.4L173.4,112.4c0-0.2,0-0.3,0-0.4c0.1-1.7,0.3-5.1,0.3-6.4
			c0-0.1,0-0.2,0-0.3c0-0.1,0-0.1,0-0.1l0,0c0.1-1.5,0.4-1.9,1.9-1.9h23.5c1.7,0,1.9,0.4,1.9,3.6c0,1.4-1.3,1.4-1.9,1.4h-22.2v1.7
			H199c2,0,2,0.5,2,2.8c0,2,0,2.5-2,2.5h-23.7c-0.9,0-2,0-2-1.5C173.4,113.4,173.4,112.8,173.4,112.4L173.4,112.4z"/>
		<path d="M203.8,122c-0.7,0-1,0.3-1.6,1.4c-0.3,0.4-7.5,0.7-9.8,0.7h-14.2v1.7h21.8c2.2,0,2.2,0.9,2.2,3.9c0,4.4-0.2,6.2-2.3,6.2
			H178v1.7h21.8c1.3,0,1.9,0.9,2,1.4c0.1,0.9,0.3,2,1.9,2c2.7,0,3.1-2.5,3.1-3.8c0-7.3,0-9.5,0.3-9.9c0.1-0.3,1.4-1.5,1.4-2
			C208.5,124.4,204.2,122,203.8,122z"/>
		<path d="M72.5,170.3H5.2c-1,0-1.9,0.9-1.9,1.9v0.9c0,1,0.9,1.9,1.9,1.9h67.4c1,0,1.9-0.9,1.9-1.9v-0.9
			C74.4,171.1,73.6,170.3,72.5,170.3z"/>
		<path d="M289.1,170.3h-67.4c-1,0-1.9,0.9-1.9,1.9v0.9c0,1,0.9,1.9,1.9,1.9h67.4c1,0,1.9-0.9,1.9-1.9v-0.9
			C291,171.1,290.2,170.3,289.1,170.3z"/>
		<path d="M8.2,55.4h1.5c0.1,0,2-0.1,3.1-1c0.1,0,0.1-0.1,0.1-0.1L69.7,4.2c0.9-0.9,1.9-2.2-1-2.2h-1.4c0,0-2,0.1-3.1,1L7,53.3
			C6.2,54.3,5.6,55.4,8.2,55.4z"/>
		<path d="M81.7,5.2l55.1,47.6l1,0.9c1,0.7,2.7,1.5,5.5,1.5h20.2h0.7c1.3,0,2.8-0.1,3.2-0.9c0.4-0.9-0.1-1.6-0.5-2.2L110.3,3.3
			c-1-0.7-2.6-1.3-5.1-1.3h-21c-1.3,0-2.7,0.1-3.2,0.9C80.8,3.9,81.3,4.5,81.7,5.2L81.7,5.2z"/>
		<path d="M205,5.2l55.1,47.6l1,0.9c1,0.7,2.7,1.5,5.5,1.5h20.3h0.5c1.3,0,2.8-0.1,3.2-0.9c0.4-0.9,0-1.6-0.5-2.2L233.6,3.3
			c-1-0.7-2.6-1.3-5.1-1.3h-21c-1.3,0-2.7,0.1-3.2,0.9C204,3.9,204.4,4.5,205,5.2L205,5.2z"/>
		<path d="M143.4,5.2l55,47.6l1,0.9c1,0.7,2.7,1.5,5.5,1.5h20.3h0.5c1.3,0,2.8-0.1,3.2-0.9c0.4-0.9-0.1-1.6-0.5-2.2l0,0L172,3.3
			c-1-0.7-2.6-1.3-5.1-1.3h-21c-1.3,0-2.7,0.1-3.2,0.9C142.4,3.9,142.8,4.5,143.4,5.2L143.4,5.2z"/>
	</g>
</g>
</svg>
